<?xml version="1.0" encoding="UTF-8"?>
<svg version="1.1" xmlns="http://www.w3.org/2000/svg" width="512" height="512">
<path d="M0 0 C48.43289382 0 92.97532588 21.33495985 127.1875 54.875 C151 78.80973671 151 78.80973671 151 88 C149.93193115 88.60920288 149.93193115 88.60920288 148.84228516 89.23071289 C132.60954545 98.49191534 116.39940195 107.7907986 100.21777344 117.14111328 C94.81329355 120.26324605 89.40652588 123.38141204 84 126.5 C81.8333225 127.74998122 79.66665583 128.99998121 77.5 130.25 C64.5 137.75 64.5 137.75 61.24780273 139.6262207 C59.08840605 140.8720577 56.92906331 142.11798818 54.76977539 143.36401367 C49.24232403 146.55348953 43.71384879 149.74116885 38.18359375 152.92578125 C35.93487417 154.22131657 33.68617595 155.51688896 31.4375 156.8125 C30.35919922 157.43326416 29.28089844 158.05402832 28.16992188 158.69360352 C23.31758267 161.4911637 18.47430694 164.30120151 13.66015625 167.1640625 C12.86359619 167.63739014 12.06703613 168.11071777 11.24633789 168.59838867 C9.7938606 169.4642552 8.34365882 170.33395536 6.89624023 171.20825195 C2.21802943 174 2.21802943 174 0 174 C0 116.58 0 59.16 0 0 Z M18.18359375 16.3203125 C13.57560672 21.08292997 10.2084355 24.8734675 9.75 31.75 C9.78562677 34.88566761 9.78562677 34.88566761 11 37 C12.8064655 38.0146239 12.8064655 38.0146239 15 38 C18.06114714 35.83919026 18.91444474 34.32388778 19.875 30.6875 C21.28421359 26.068411 23.69457466 23.41976395 27 20 C25.78969026 17.42672567 25.78969026 17.42672567 24 15 C20.16499704 14.60802346 20.16499704 14.60802346 18.18359375 16.3203125 Z M28.0625 40.125 C24.92743298 44.49509342 24.64061546 47.6990781 25 53 C26.82143776 58.16074033 29.13614554 60.52218735 34 63 C40.00561341 64.60149691 43.99186132 63.88553282 49.66015625 61.37890625 C54.26184102 58.66706197 57.31691308 55.04926075 59 50 C59.54508569 45.30868877 59.44834676 41.89669352 57.3125 37.625 C54.21605803 34.11011993 52.25391786 32.31895064 47.515625 31.6484375 C38.9829926 31.20059215 33.64812492 33.75961547 28.0625 40.125 Z M75 32 C71.4983584 34.67654214 70.78903605 38.29757065 69.75 42.375 C69.564375 43.035 69.37875 43.695 69.1875 44.375 C68.17098698 48.24082982 67.76495774 51.16562462 69 55 C70.05310277 56.27003323 70.05310277 56.27003323 72.4375 56.1875 C75.16734675 56.26839983 75.16734675 56.26839983 77 54 C77.81704456 51.56041465 78.53208422 49.16956194 79.1875 46.6875 C79.37763672 46.02298828 79.56777344 45.35847656 79.76367188 44.67382812 C80.79691494 40.81918332 81.39931811 37.8021876 80 34 C77.52363988 32.62533375 77.52363988 32.62533375 75 32 Z M79.1875 62.0625 C76.67569654 66.16070565 76.31575166 70.32823546 77 75 C79.00133072 80.9052718 81.69744634 85.85896404 87.11328125 89.16015625 C91.85117573 91.2691569 95.69543505 91.36962673 100.75 89.9375 C105.34542398 87.19792032 107.32804232 84.01587305 109 79 C109.6115368 72.884632 108.34053247 68.09870746 105 63 C100.71043597 58.86579242 96.70817485 56.25548819 90.6875 55.6875 C85.50276139 56.12688463 82.58398245 58.19753721 79.1875 62.0625 Z M121.3125 72.4375 C119.70587444 75.57424513 119.58698246 78.19468287 119.31640625 81.671875 C118.84417618 85.1465555 117.53510737 87.86304146 116 91 C116.99 92.32 117.98 93.64 119 95 C121.37233611 94.96219702 121.37233611 94.96219702 124 94 C127.93456801 88.97249643 129.1492437 85.23448682 129.1875 78.9375 C129.20167969 77.87402344 129.21585938 76.81054688 129.23046875 75.71484375 C129.28122312 72.85138319 129.28122312 72.85138319 127 71 C123.13803407 70.56768903 123.13803407 70.56768903 121.3125 72.4375 Z M20.5625 75.375 C20.046875 75.91125 19.53125 76.4475 19 77 C19.03093173 79.41585574 19.03093173 79.41585574 20 82 C26.7993987 86.23073697 33.96841226 87.1053702 41.73828125 85.3984375 C46.84012983 84.0471955 46.84012983 84.0471955 51 81 C50.99077298 78.45286596 50.99077298 78.45286596 50 76 C48.42218117 74.37631112 48.42218117 74.37631112 46 74 C43.65986656 74.64238957 41.32748694 75.31320058 39 76 C34.38517642 76.44106278 30.63246041 76.19699586 26.1875 74.8125 C23.02552605 73.61542955 23.02552605 73.61542955 20.5625 75.375 Z M64 89 C62.68 89.99 61.36 90.98 60 92 C60.57516418 96.64555684 62.59695731 100.22307636 64.9375 104.1875 C65.29779297 104.81591797 65.65808594 105.44433594 66.02929688 106.09179688 C67.52087276 108.66016418 68.89113712 110.89113712 71 113 C73.58354218 113.16687448 73.58354218 113.16687448 76 113 C77.43457854 110.95148051 77.43457854 110.95148051 78 108 C77.05553892 105.0563654 75.51957323 102.5190128 73.9375 99.875 C73.34291992 98.80185547 73.34291992 98.80185547 72.73632812 97.70703125 C70.36661425 93.61075685 68.43962315 91.04175182 64 89 Z M23 108 C20.73279835 113.46189487 20.48794916 118.33231273 22 124 C23.99526218 128.63473456 26.63789354 131.21963364 31.3125 133.125 C35.42835829 134.21891582 38.28368358 134.00280757 42.14453125 132.22265625 C46.60380935 129.28422668 49.99066554 124.93200276 52 120 C52.67416884 114.88102032 52.79866642 109.72805786 50.375 105.0625 C47.45089325 101.2919413 44.88829204 98.56032866 40.046875 97.62109375 C32.13405885 97.15296913 27.38948921 101.78155696 23 108 Z " fill="#BE34F6" transform="translate(260,74)"/>
<path d="M0 0 C0 57.42 0 114.84 0 174 C-48.43289382 174 -92.97532588 152.66504015 -127.1875 119.125 C-151 95.19026329 -151 95.19026329 -151 86 C-150.2879541 85.59386475 -149.5759082 85.18772949 -148.84228516 84.76928711 C-132.60954545 75.50808466 -116.39940195 66.2092014 -100.21777344 56.85888672 C-94.81329355 53.73675395 -89.40652588 50.61858796 -84 47.5 C-81.8333225 46.25001878 -79.66665583 45.00001879 -77.5 43.75 C-64.5 36.25 -64.5 36.25 -61.24780273 34.3737793 C-59.08840605 33.1279423 -56.92906331 31.88201182 -54.76977539 30.63598633 C-49.24232403 27.44651047 -43.71384879 24.25883115 -38.18359375 21.07421875 C-35.93487417 19.77868343 -33.68617595 18.48311104 -31.4375 17.1875 C-30.35919922 16.56673584 -29.28089844 15.94597168 -28.16992188 15.30639648 C-23.31758267 12.5088363 -18.47430694 9.69879849 -13.66015625 6.8359375 C-12.86359619 6.36260986 -12.06703613 5.88928223 -11.24633789 5.40161133 C-9.7938606 4.5357448 -8.34365882 3.66604464 -6.89624023 2.79174805 C-2.21802943 0 -2.21802943 0 0 0 Z M-48.25 47.5 C-52.30181985 53.28831408 -52.79386884 57.99410748 -52 65 C-50.69272735 69.0555163 -48.43980763 71.61017051 -45.25 74.4375 C-41.26459428 76.35356044 -38.33899841 76.85214799 -34 76 C-28.1436747 73.0144224 -24.14790633 68.7654107 -21.625 62.6875 C-20.57919767 56.51726623 -20.73995753 51.36618187 -24.3125 46.0625 C-26.70442822 42.87074721 -29.17908156 41.28472543 -33.1484375 40.6640625 C-39.97407196 40.54431453 -43.60073023 42.3341447 -48.25 47.5 Z M-76 61 C-77.43457854 63.04851949 -77.43457854 63.04851949 -78 66 C-77.05553892 68.9436346 -75.51957323 71.4809872 -73.9375 74.125 C-73.54111328 74.84042969 -73.14472656 75.55585938 -72.73632812 76.29296875 C-70.36661425 80.38924315 -68.43962315 82.95824818 -64 85 C-62.68 84.01 -61.36 83.02 -60 82 C-60.57516418 77.35444316 -62.59695731 73.77692364 -64.9375 69.8125 C-65.29779297 69.18408203 -65.65808594 68.55566406 -66.02929688 67.90820312 C-67.52087276 65.33983582 -68.89113712 63.10886288 -71 61 C-73.58354218 60.83312552 -73.58354218 60.83312552 -76 61 Z M-123 79 C-127.75165155 84.54359347 -129.8528543 89.71628763 -130 97 C-129.5666741 99.92511453 -129.5666741 99.92511453 -128 102 C-125.45224694 102.89386164 -125.45224694 102.89386164 -123 103 C-119.68190942 99.68190942 -119.65220456 96.68483507 -119.32421875 92.24609375 C-119 90 -119 90 -117.3125 86.6875 C-115.72161238 84.1328944 -115.72161238 84.1328944 -116.5 81.6875 C-118.48923953 79.44960553 -120.08141547 79.30721942 -123 79 Z M-105 87 C-108.02684265 90.32111901 -108.91117996 93.39799748 -109.5625 97.8125 C-109.21305182 104.21488981 -105.95260126 110.09502316 -101.4375 114.5 C-100.2309375 115.2425 -100.2309375 115.2425 -99 116 C-98.1028125 116.61875 -98.1028125 116.61875 -97.1875 117.25 C-93.77698084 118.41932086 -90.52661356 118.55719135 -87 118 C-81.89790078 115.30455136 -78.82618963 112.4785689 -77 107 C-76.46215229 100.65339703 -77.28736973 96.25413173 -81 91 C-84.43171808 87.32432092 -88.07326122 84.33155102 -93 83 C-97.93754262 83 -100.97013174 84.20056282 -105 87 Z M-51 93 C-50.71016731 96.30683466 -50.71016731 96.30683466 -49 99 C-47.49577029 98.90747793 -45.99543465 98.74942933 -44.5 98.5625 C-38.13498254 97.87242678 -32.36123391 97.2645337 -26.1875 99.1875 C-23.02552605 100.38457045 -23.02552605 100.38457045 -20.5625 98.625 C-20.046875 98.08875 -19.53125 97.5525 -19 97 C-19.03093173 94.58414426 -19.03093173 94.58414426 -20 92 C-28.58857454 86.65599806 -43.27439122 85.27439122 -51 93 Z M-55.5 117.1875 C-58.4364808 121.0944417 -59.8787051 125.10488431 -60 130 C-58.53118919 135.2704388 -56.53160457 137.97893029 -52 141 C-48.01286661 142.99356669 -43.33424191 142.51542336 -39 142 C-33.32115238 139.78944187 -29.49605102 135.87328324 -26 131 C-24.75716219 127.27148658 -24.4719274 123.87253239 -25 120 C-27.23842515 115.60605434 -29.45607979 112.96214736 -34 111 C-42.14365586 108.92957902 -49.60539886 111.01973441 -55.5 117.1875 Z M-75 118 C-79.6570814 127.76589449 -79.6570814 127.76589449 -80.73828125 138.25390625 C-80.09891861 140.29914819 -80.09891861 140.29914819 -77.4375 141.25 C-76.633125 141.4975 -75.82875 141.745 -75 142 C-71.59895238 139.32983654 -70.93539366 136.19495175 -69.8125 132.125 C-69.46832031 130.91070312 -69.12414062 129.69640625 -68.76953125 128.4453125 C-68.09849429 125.44097442 -67.66668453 123.04901689 -68 120 C-69.83883881 117.71271266 -69.83883881 117.71271266 -72.625 117.875 C-73.40875 117.91625 -74.1925 117.9575 -75 118 Z M-17 137 C-19.18028437 139.89716613 -19.18028437 139.89716613 -19.8125 143.375 C-21.15812648 147.48270187 -22.99829596 148.99829596 -26 152 C-26.58488562 154.62875402 -26.58488562 154.62875402 -26 157 C-25.34 157.66 -24.68 158.32 -24 159 C-20.93849681 158.82020536 -19.39069114 158.33510182 -17.05078125 156.328125 C-12.32941849 150.6837093 -9.31859222 146.66583752 -10 139 C-11.82915641 136.76154985 -11.82915641 136.76154985 -14.5 136.6875 C-15.325 136.790625 -16.15 136.89375 -17 137 Z " fill="#5C8BEA" transform="translate(252,264)"/>
<path d="M0 0 C0 57.42 0 114.84 0 174 C-3.62806134 172.54877547 -6.74228784 171.12455815 -10.11328125 169.234375 C-11.10126709 168.68144775 -12.08925293 168.12852051 -13.10717773 167.55883789 C-14.69381226 166.66346313 -14.69381226 166.66346313 -16.3125 165.75 C-17.42117432 165.12665771 -18.52984863 164.50331543 -19.67211914 163.86108398 C-29.13940877 158.52126695 -38.53299965 153.05876975 -47.91015625 147.5625 C-54.21570419 143.8678669 -60.54294436 140.21147319 -66.875 136.5625 C-67.95515381 135.93996338 -69.03530762 135.31742676 -70.14819336 134.67602539 C-72.33796334 133.41423174 -74.52782355 132.15259466 -76.71777344 130.89111328 C-82.14659941 127.76319852 -87.57319975 124.63142753 -93 121.5 C-99.58172877 117.70260037 -106.16364072 113.90551907 -112.74609375 110.109375 C-125.50415943 102.75123049 -138.25725643 95.38465019 -151 88 C-143.70618838 62.33938812 -110.84706976 37.81526137 -89 25 C-88.26491211 24.566875 -87.52982422 24.13375 -86.77246094 23.6875 C-60.35030725 8.38417117 -30.5294148 0 0 0 Z M-28 15 C-28.83541854 17.36757327 -28.83541854 17.36757327 -28 20 C-26.09245238 21.37867778 -24.09044688 22.46320366 -22.03125 23.6015625 C-19.79564463 25.14069081 -18.9635345 26.3522907 -17.75 28.75 C-16.3451928 32.02724159 -16.3451928 32.02724159 -14 33.1875 C-10.99892691 32.9061494 -9.88750887 31.22456402 -8 29 C-9.60400626 22.42357435 -13.2492517 18.07983408 -18.5625 14.0625 C-22.41927329 12.38134241 -24.9327851 11.9327851 -28 15 Z M-56.5625 34.625 C-59.31605617 39.17435368 -59.63186224 42.7226154 -59 48 C-56.61104306 52.86979684 -53.66669958 55.31913003 -49 58 C-43.42586747 59.85804418 -38.05724432 59.80631384 -32.6875 57.3125 C-28.62800916 55.04015553 -26.08374243 52.16748485 -24 48 C-23.44026586 43.41201528 -23.57535957 39.90023771 -25.5625 35.6875 C-30.10881744 30.67489359 -34.90208587 28.31718732 -41.59375 27.8359375 C-47.46060148 28.2359501 -52.47822848 30.4411121 -56.5625 34.625 Z M-84.75 36.1875 C-86.2203589 37.93772692 -86.2203589 37.93772692 -85.9375 40.21875 C-84.60537047 44.17073427 -82.18926571 46.43271942 -79.25 49.3125 C-78.7240625 49.86228516 -78.198125 50.41207031 -77.65625 50.97851562 C-75.25859039 53.36727304 -73.61846012 54.89255566 -70.234375 55.48046875 C-67.80847326 55.17023979 -67.80847326 55.17023979 -66 53 C-65.9600922 49.25531784 -67.40019041 47.30984075 -69.8359375 44.66796875 C-71.00523858 43.49734494 -72.18533565 42.33742341 -73.375 41.1875 C-73.96539062 40.59001953 -74.55578125 39.99253906 -75.1640625 39.37695312 C-79.30159791 34.80532051 -79.30159791 34.80532051 -84.75 36.1875 Z M-101.25 63.3125 C-104.53500824 68.35733409 -105.52486196 73.14564631 -104.53515625 79.015625 C-103.24231756 83.8095086 -101.02052094 87.13822676 -97.1875 90.375 C-93.57881467 92.21472194 -91.05263877 92.92763145 -87 93 C-81.05654673 90.97922589 -77.73899757 87.0639481 -74.6875 81.6875 C-73.04625561 75.27172649 -73.36598107 69.60354198 -76.67578125 63.796875 C-79.39550721 60.1063914 -82.4803282 57.5507213 -87.01953125 56.55859375 C-93.39694972 56.18058233 -96.99389478 58.93816963 -101.25 63.3125 Z M-128 76 C-128.53919508 82.66389821 -126.05574855 87.89143177 -122 93 C-120.17728073 95.12355567 -120.17728073 95.12355567 -118 96 C-114.67649546 95.76554071 -114.67649546 95.76554071 -112 94 C-111.49758678 91.6704053 -111.49758678 91.6704053 -112 89 C-112.763125 88.2575 -113.52625 87.515 -114.3125 86.75 C-117.41968003 83.57055997 -118.22892365 81.07982625 -119.421875 76.890625 C-119.83592737 75.00759676 -119.83592737 75.00759676 -121 74 C-124.961168 73.60909667 -124.961168 73.60909667 -128 76 Z M-42 76 C-42.33333333 78.5 -42.33333333 78.5 -42 81 C-39.06853667 83.93146333 -36.51559254 83.29161443 -32.50585938 83.32226562 C-31.53455078 83.31904297 -30.56324219 83.31582031 -29.5625 83.3125 C-28.59505859 83.32861328 -27.62761719 83.34472656 -26.63085938 83.36132812 C-25.70208984 83.36197266 -24.77332031 83.36261719 -23.81640625 83.36328125 C-22.53938843 83.36775269 -22.53938843 83.36775269 -21.23657227 83.37231445 C-18.53040246 82.92182772 -17.61536226 82.18537287 -16 80 C-16.27036147 77.02602384 -16.85446026 76.14553974 -19 74 C-21.19602795 73.68980304 -21.19602795 73.68980304 -23.71875 73.734375 C-24.65074219 73.73179687 -25.58273438 73.72921875 -26.54296875 73.7265625 C-27.51878906 73.73429687 -28.49460937 73.74203125 -29.5 73.75 C-30.47582031 73.74226563 -31.45164062 73.73453125 -32.45703125 73.7265625 C-33.38902344 73.72914063 -34.32101563 73.73171875 -35.28125 73.734375 C-36.56612305 73.73775879 -36.56612305 73.73775879 -37.87695312 73.74121094 C-40.21588547 73.80498428 -40.21588547 73.80498428 -42 76 Z M-62 82 C-64.44074884 85.21946395 -65.58611436 88.54296144 -66.75 92.375 C-68.47684905 97.41333604 -70.71785515 100.01706342 -74.64453125 103.5 C-76.32126106 105.01856555 -76.32126106 105.01856555 -76 107.875 C-75.17641639 109.9364901 -75.17641639 109.9364901 -74 111 C-71.00304388 111.34930739 -69.48467619 111.32036362 -66.9375 109.63671875 C-60.36622572 103.02569886 -55 94.61870884 -55 85 C-56.04374022 82.95548981 -56.04374022 82.95548981 -58 82 C-59.32 82 -60.64 82 -62 82 Z M-47.8125 102.75 C-50.25020984 107.36881864 -50.56698639 112.05047915 -49.125 117 C-46.91323254 122.2193578 -42.50060158 125.73054124 -38 129 C-33.93220306 130.35593231 -30.25331741 130.53075585 -26 130 C-22.13279753 127.99478391 -19.05238434 125.88872822 -17 122 C-15.58205316 115.92308496 -15.80497892 111.44457674 -19 106 C-22.90820074 101.10030991 -26.7110756 97.5031699 -33.09765625 96.75390625 C-39.60069841 96.39564182 -43.09957818 98.19959272 -47.8125 102.75 Z " fill="#BE34F6" transform="translate(252,74)"/>
<path d="M0 0 C12.01310618 5.62585606 23.33356537 12.36589496 34.75292969 19.09423828 C40.10985526 22.23831054 45.49221436 25.33797616 50.875 28.4375 C51.95426758 29.05947266 53.03353516 29.68144531 54.14550781 30.32226562 C56.33614966 31.5846694 58.526905 32.84687623 60.71777344 34.10888672 C67.22871257 37.86028024 73.73663194 41.61690994 80.24511719 45.37255859 C85.68585336 48.51182246 91.12731477 51.64981497 96.5703125 54.78515625 C107.39364167 61.02127925 118.20821351 67.27191602 129 73.5625 C129.9605127 74.12203369 130.92102539 74.68156738 131.91064453 75.25805664 C137.96786099 78.79365186 143.99433325 82.37754727 150 86 C148.78416075 89.64751775 147.99712003 89.85255743 144.71484375 91.64453125 C143.80452393 92.14895752 142.8942041 92.65338379 141.95629883 93.1730957 C140.96009521 93.71409912 139.9638916 94.25510254 138.9375 94.8125 C136.81423372 95.98801246 134.69186414 97.1651458 132.5703125 98.34375 C131.4762207 98.94960938 130.38212891 99.55546875 129.25488281 100.1796875 C124.23328177 102.98804764 119.27283958 105.89771275 114.3125 108.8125 C105.57450122 113.93339038 96.79992392 118.98661614 88 124 C79.30589701 128.95363578 70.63504841 133.94382373 62 139 C49.83697827 146.11996666 37.60088046 153.10924304 25.35595703 160.08691406 C20.15155632 163.05371779 14.95082904 166.02694111 9.75 169 C8.03647735 169.97919994 6.32293783 170.95837037 4.609375 171.9375 C3.90780273 172.33839844 3.20623047 172.73929688 2.48339844 173.15234375 C1.99387695 173.43207031 1.50435547 173.71179688 1 174 C-16.18512884 157.93051376 -21.2142515 120.29551807 -22.12451172 97.94238281 C-22.94703211 63.72349106 -17.63369106 29.85399976 0 0 Z M-1 26 C-1.41666667 28.5 -1.41666667 28.5 -1 31 C-0.34 31.66 0.32 32.32 1 33 C3.9316909 32.74507036 6.29998024 32.37363018 8.91015625 30.98046875 C11.86832555 29.59261736 14.65250145 29.61007159 17.87890625 29.44140625 C20.46725725 28.9027623 21.41484428 28.08626947 23 26 C22.72963853 23.02602384 22.14553974 22.14553974 20 20 C12.05500241 18.55545498 5.47355814 21.68429458 -1 26 Z M6.1953125 45.98828125 C2.61259963 50.95093855 0.90260894 54.86436304 1 61 C1.87094826 65.42047325 3.43314283 68.84295229 6.75 71.9375 C10.45859514 74.29103153 12.61453859 75 17 75 C23.23085744 72.95885704 27.97392856 70.15743009 31.3125 64.4375 C33.61918766 59.40044736 33.81461396 54.43630131 33 49 C31.1942807 45.11075842 29.73252453 43.48834969 26.1875 41.125 C18.55586275 38.43148097 11.63263757 39.99780839 6.1953125 45.98828125 Z M56 52 C54.36581583 53.66184384 54.36581583 53.66184384 53.0625 55.9375 C52.30453125 57.16533203 52.30453125 57.16533203 51.53125 58.41796875 C51.0259375 59.27003906 50.520625 60.12210938 50 61 C49.4946875 61.80050781 48.989375 62.60101563 48.46875 63.42578125 C48.0046875 64.19277344 47.540625 64.95976562 47.0625 65.75 C46.64097656 66.44609375 46.21945313 67.1421875 45.78515625 67.859375 C44.77855759 70.60373353 45.16801619 72.23612157 46 75 C47.0450521 76.23220965 47.0450521 76.23220965 49.3046875 76.44140625 C52.26395583 76.26127911 52.26395583 76.26127911 54.1328125 73.40234375 C54.79023438 72.25894531 55.44765625 71.11554688 56.125 69.9375 C56.78757812 68.81214844 57.45015625 67.68679687 58.1328125 66.52734375 C59.96640163 63.06347139 61.51419235 59.62223293 63 56 C61.77409808 53.92022703 61.77409808 53.92022703 60 52 C58.68 52 57.36 52 56 52 Z M68 75.9375 C65.3169874 80.04586304 64 82.41903725 64 87.375 C65.42548714 92.54239088 68.30532159 96.30668434 72.87109375 99.17578125 C77.70175618 101.04600102 83.39986545 100.77041024 88.3203125 99.3125 C93.12040888 97.12234195 95.98505046 94.29401904 99 90 C100.20643566 86.38069302 100.32268559 83.80768995 100 80 C97.55485953 75.20376293 94.79162409 72.44101605 90 70 C82.09042164 67.64686248 73.55517475 69.63074279 68 75.9375 Z M-0.5625 83.4375 C-1.35591797 83.66759766 -2.14933594 83.89769531 -2.96679688 84.13476562 C-6.78529556 84.99716982 -6.78529556 84.99716982 -10 87 C-10.16666667 90 -10.16666667 90 -10 93 C-8.86884028 94.35378789 -8.86884028 94.35378789 -5.89453125 94.16796875 C-1.91417785 93.99629854 1.4725649 93.35600546 5.3125 92.3125 C6.52550781 91.99925781 7.73851563 91.68601562 8.98828125 91.36328125 C12.19524682 90.2793481 12.19524682 90.2793481 13.41796875 87.35546875 C13.61003906 86.57816406 13.80210938 85.80085938 14 85 C12.71034824 83.62437146 11.37310707 82.29233607 10 81 C6.36518447 81 2.90204553 82.41086324 -0.5625 83.4375 Z M42.25 91.1875 C40.74856061 92.95822086 40.74856061 92.95822086 41.1796875 95.35546875 C42.16446856 98.53021531 43.49505234 99.83222991 45.875 102.125 C50.40298211 106.93699532 51.84923343 111.5868738 53 118 C55.3260857 118.38063221 57.66055264 118.71269945 60 119 C61.44379184 117.76850197 61.44379184 117.76850197 61.375 114.0625 C61.27088082 105.87612986 56.71423431 99.31654453 51.4296875 93.375 C48.47382158 90.53219999 46.00038097 88.64259863 42.25 91.1875 Z M5.58203125 103.51171875 C2.88006011 107.46784714 2.46340955 111.04946034 3.26953125 115.7265625 C5.07559761 121.34758188 8.65838364 125.55657066 13.75 128.5 C18.41712317 130.50275017 23.00785603 130.83620502 28 130 C31.89195522 128.01864098 34.94325506 125.89699042 37 122 C38.38872331 115.94913413 38.14681349 112.5593705 35 107 C30.67069117 101.98711609 26.75950675 99.07744294 20.1875 98.0625 C14.20433578 97.643411 9.72868316 99.09090804 5.58203125 103.51171875 Z M2 143 C1.41649495 145.45709375 1.41649495 145.45709375 2 148 C5.55226251 151.55226251 9.50869949 152.14755157 14.375 152.25 C18.82119298 152.21331524 22.73836327 151.26163673 26 148 C26.04063832 146.33382885 26.042721 144.66611905 26 143 C22.13236554 141.12456646 22.13236554 141.12456646 18 142 C14.43576662 142.13449937 11.2572497 142.0494711 7.75 141.375 C4.78947089 140.66221659 4.78947089 140.66221659 2 143 Z " fill="#8D60F0" transform="translate(96,169)"/>
<path d="M0 0 C15.92960234 13.12717229 20.41408473 48.58362286 22.5859375 67.78125 C25.92750319 104.13578917 19.71697656 142.31198802 1 174 C-11.01310618 168.37414394 -22.33356537 161.63410504 -33.75292969 154.90576172 C-39.10985526 151.76168946 -44.49221436 148.66202384 -49.875 145.5625 C-50.95426758 144.94052734 -52.03353516 144.31855469 -53.14550781 143.67773438 C-55.33614966 142.4153306 -57.526905 141.15312377 -59.71777344 139.89111328 C-65.14659942 136.76319852 -70.57319281 133.63141552 -76 130.5 C-78.16665583 129.24998121 -80.3333225 127.99998122 -82.5 126.75 C-86.83333333 124.25 -91.16666667 121.75 -95.5 119.25 C-97.11092529 118.3206665 -97.11092529 118.3206665 -98.75439453 117.37255859 C-100.9065213 116.13088473 -103.05854073 114.88902478 -105.21044922 113.64697266 C-110.25030977 110.73833177 -115.29117492 107.83148102 -120.33599854 104.93145752 C-122.11749578 103.90724335 -123.89864322 102.88242349 -125.6796875 101.85742188 C-127.91076625 100.57366625 -130.14249573 99.29104061 -132.375 98.00976562 C-137.98865365 94.77798665 -143.53291438 91.47428702 -149 88 C-147.55416201 83.66248604 -144.28157201 82.70637328 -140.4375 80.6875 C-138.7786002 79.79155341 -137.12111882 78.89297701 -135.46484375 77.9921875 C-134.57651855 77.50975586 -133.68819336 77.02732422 -132.77294922 76.53027344 C-127.96521693 73.87708925 -123.23521152 71.09242958 -118.5 68.3125 C-110.05781275 63.36747211 -101.60195819 58.44771035 -93.125 53.5625 C-92.04541016 52.94028564 -90.96582031 52.31807129 -89.85351562 51.67700195 C-87.6631748 50.41488483 -85.47274498 49.15292215 -83.28222656 47.89111328 C-77.85340058 44.76319852 -72.42680719 41.63141552 -67 38.5 C-64.83334417 37.24998121 -62.6666775 35.99998122 -60.5 34.75 C-59.4275 34.13125 -58.355 33.5125 -57.25 32.875 C-52.375 30.0625 -52.375 30.0625 -47.5 27.25 C-46.42556641 26.63012207 -45.35113281 26.01024414 -44.24414062 25.37158203 C-42.09704864 24.13289998 -39.94991386 22.8942921 -37.80273438 21.65576172 C-32.70411191 18.7146665 -27.60594704 15.77278587 -22.50927734 12.82830811 C-20.08952335 11.43041399 -17.66952737 10.03293911 -15.24951172 8.63549805 C-13.53198948 7.64347676 -11.81481948 6.65084571 -10.09765625 5.65820312 C-8.54884766 4.76391602 -8.54884766 4.76391602 -6.96875 3.8515625 C-5.59879883 3.05999756 -5.59879883 3.05999756 -4.20117188 2.25244141 C-2.82011309 1.46663489 -1.42121505 0.71060752 0 0 Z M-25 26 C-25.04063832 27.66617115 -25.042721 29.33388095 -25 31 C-21.13236554 32.87543354 -21.13236554 32.87543354 -17 32 C-13.41050741 31.86454745 -10.27045509 31.94278835 -6.75 32.6875 C-4.0278952 33.2737877 -4.0278952 33.2737877 -2.0625 31.875 C-0.81225838 29.995776 -0.81225838 29.995776 -0.875 27.5 C-1.8486457 24.70355866 -1.8486457 24.70355866 -5 23.1875 C-11.65960921 20.79441661 -19.66000671 20.66000671 -25 26 Z M-34.8125 49.75 C-36.94809707 53.79639445 -37.65130719 57.69670174 -36.41015625 62.0859375 C-33.61994206 68.33697529 -29.19508992 72.40245504 -23.125 75.4375 C-17.45046223 76.4589168 -12.82263994 75.87756738 -7.625 73.375 C-4.35249177 70.41415922 -3.20295912 68.24573808 -2 64 C-1.73721055 58.33907736 -3.32125543 54.35640805 -7 50 C-12.61697438 45.26587581 -17.12320726 43.63965007 -24.4921875 43.71484375 C-29.03962429 44.2319199 -31.63674929 46.68375794 -34.8125 49.75 Z M-60 56 C-60.77976705 65.66911137 -57.56780251 72.12711837 -51.5 79.5625 C-48.88896347 82.62307819 -47.03892828 83.63820675 -43 84 C-41 83 -41 83 -40 81 C-40.34551463 76.65947252 -41.81492939 74.79971178 -44.875 71.8125 C-48.66052105 67.78362403 -50.23851794 64.42666928 -51.4296875 59.06640625 C-51.87278207 56.79821782 -51.87278207 56.79821782 -54 55 C-57.7763932 54.7018576 -57.7763932 54.7018576 -60 56 Z M-95.375 80.5 C-95.91125 81.325 -96.4475 82.15 -97 83 C-97.4125 83.61875 -97.825 84.2375 -98.25 84.875 C-99.38804243 88.09945356 -99.35130249 90.60407592 -99 94 C-96.55485953 98.79623707 -93.79162409 101.55898395 -89 104 C-82.75213914 105.69237047 -77.66586064 105.08394946 -72 102 C-67.14391459 98.98966651 -64.61489459 95.50964038 -63 90 C-63.16468303 85.22419199 -63.97346537 81.73272604 -67 78 C-72.00463601 74.14225974 -75.99132696 73.36272113 -82.28125 73.61328125 C-87.78234152 74.39576409 -91.5733155 76.49822685 -95.375 80.5 Z M-3.125 81.8125 C-4.34445312 82.14894531 -5.56390625 82.48539062 -6.8203125 82.83203125 C-9.74509791 83.90636889 -11.11249769 84.5958456 -13 87 C-12.29660434 89.50965614 -12.29660434 89.50965614 -11 92 C-7.98351207 93.19140974 -5.98122206 92.96852608 -2.92578125 92.0390625 C-2.17619141 91.81476563 -1.42660156 91.59046875 -0.65429688 91.359375 C0.11849609 91.11703125 0.89128906 90.8746875 1.6875 90.625 C2.47189453 90.39039063 3.25628906 90.15578125 4.06445312 89.9140625 C7.82904532 89.01093784 7.82904532 89.01093784 11 87 C11.2500773 84.54190002 11.2500773 84.54190002 11 82 C9.21020372 79.79281926 9.21020372 79.79281926 6.8203125 79.76171875 C3.34831536 80.05505923 0.22706568 80.86239221 -3.125 81.8125 Z M-53.1328125 100.66796875 C-53.81562013 101.83033582 -54.47911064 103.00422049 -55.125 104.1875 C-55.45886719 104.76564453 -55.79273438 105.34378906 -56.13671875 105.93945312 C-57.10442988 107.61871655 -58.05253496 109.3092308 -59 111 C-59.58652344 111.90878906 -60.17304688 112.81757813 -60.77734375 113.75390625 C-62.30908006 115.99331872 -62.30908006 115.99331872 -61.4375 118.75 C-60.19377802 121.08329421 -60.19377802 121.08329421 -58.125 122.0625 C-55.86498713 122.21639535 -55.86498713 122.21639535 -54.13671875 120.4296875 C-51.57838424 117.52057587 -49.61368414 114.40427101 -47.6875 111.0625 C-47.31560547 110.45470703 -46.94371094 109.84691406 -46.56054688 109.22070312 C-44.89147587 106.33945765 -43.96517118 104.48431775 -44.20703125 101.12109375 C-44.81566705 99.04609237 -44.81566705 99.04609237 -46 98 C-49.83864012 97.25179048 -50.64172451 97.55182755 -53.1328125 100.66796875 Z M-27.875 105.9375 C-31.97704277 111.84926752 -32.89040518 116.8656285 -32 124 C-30.67959257 128.02874312 -28.71420881 130.50798949 -25.1875 132.9375 C-20.39614682 134.53461773 -16.79926662 134.59975554 -12 133 C-5.96746038 128.97830692 -1.98025828 124.64134428 -0.375 117.4375 C0.27265799 112.23464745 -0.17129434 109.41985259 -3 105 C-6.61184456 101.13616628 -9.68351301 99.14497717 -14.91796875 98.8046875 C-20.2038202 99.30054598 -24.41250864 102.01808163 -27.875 105.9375 Z M-6.625 142.4375 C-10.50523 144.23390278 -13.60298008 144.44010837 -17.828125 144.59375 C-18.54484375 144.7278125 -19.2615625 144.861875 -20 145 C-22.264384 147.69155201 -22.264384 147.69155201 -21.75 150.0625 C-21.07467282 152.19476975 -21.07467282 152.19476975 -19 154 C-11.34386372 155.39871721 -5.44577552 152.97163946 1 149 C2.27003323 147.94689723 2.27003323 147.94689723 2.1875 145.5625 C2.26839983 142.83265325 2.26839983 142.83265325 0 141 C-3.91407415 140.67979025 -3.91407415 140.67979025 -6.625 142.4375 Z " fill="#8D5FF0" transform="translate(415,169)"/>
<path d="M0 0 C15.68931079 8.55780588 31.24268003 17.26644484 46.6640625 26.296875 C53.05281992 30.03634589 59.46116076 33.74125034 65.875 37.4375 C66.95458984 38.05971436 68.03417969 38.68192871 69.14648438 39.32299805 C71.3368252 40.58511517 73.52725502 41.84707785 75.71777344 43.10888672 C81.14659941 46.23680148 86.57319975 49.36857247 92 52.5 C98.58172877 56.29739963 105.16364072 60.09448093 111.74609375 63.890625 C124.50415943 71.24876951 137.25725643 78.61534981 150 86 C142.40768482 112.71078759 107.89833732 137.90736607 85 151 C58.74270768 165.28164165 30.0095553 174 0 174 C0 116.58 0 59.16 0 0 Z M17.1875 50.375 C14.59112521 56.11435479 14.84615619 60.08801569 16.98046875 65.88671875 C19.12099972 70.32360478 22.96774663 73.31183109 27 76 C31.06779694 77.35593231 34.74668259 77.53075585 39 77 C42.86720247 74.99478391 45.94761566 72.88872822 48 69 C49.21602129 63.7884802 49.33104933 59.91506718 47.21875 54.95703125 C44.19959947 50.10897222 39.27385504 46.16258659 34 44 C26.80572319 42.87507672 21.73430016 44.41712393 17.1875 50.375 Z M61.93359375 68.51171875 C57.80818779 73.8205745 54 81.15010069 54 88 C55.31135412 90.36290685 55.31135412 90.36290685 57 92 C59.42919865 92.13440778 59.42919865 92.13440778 62 91 C63.5173468 87.70450555 63.5173468 87.70450555 64.265625 85.25390625 C65.99832834 79.93598164 68.1404702 75.58857327 72.3125 71.8125 C75.33832372 69.30920301 75.33832372 69.30920301 74.9375 66.1875 C74.18762966 64.06383277 74.18762966 64.06383277 73 63 C67.4662041 62.35501365 65.54630641 64.66680905 61.93359375 68.51171875 Z M113 78 C111.21030974 80.42672567 111.21030974 80.42672567 110 83 C110.38671875 83.47308594 110.7734375 83.94617188 111.171875 84.43359375 C115.03503571 89.33904287 117.71606001 94.19610545 120 100 C122.41645782 100.16687448 122.41645782 100.16687448 125 100 C127.17127306 98.2501291 127.17127306 98.2501291 127.1875 96.15234375 C126.63212473 89.59197332 124.25527185 85.00682484 120 80 C117.04622502 77.63019987 117.04622502 77.63019987 113 78 Z M77.25 86.875 C73.21572704 92.47815689 72.09879213 97.16679098 73 104 C74.59518169 109.33956025 77.35159812 113.16910374 82.07421875 116.15234375 C85.67100087 117.73551154 88.08262224 117.55962539 92 117 C97.6004611 114.09206828 100.99013981 110.54869476 103.3125 104.6875 C104.37521027 98.98750854 103.96700962 94.41894513 101.25 89.25 C98.66106187 85.51042271 96.59298007 82.77843087 92.11328125 81.43359375 C85.60914414 80.25665465 81.8287401 82.08813535 77.25 86.875 Z M15 94 C15.27036147 96.97397616 15.85446026 97.85446026 18 100 C20.19602795 100.31019696 20.19602795 100.31019696 22.71875 100.265625 C23.65074219 100.26820313 24.58273437 100.27078125 25.54296875 100.2734375 C26.51878906 100.26570313 27.49460937 100.25796875 28.5 100.25 C29.47582031 100.25773437 30.45164062 100.26546875 31.45703125 100.2734375 C32.38902344 100.27085937 33.32101562 100.26828125 34.28125 100.265625 C35.56612305 100.26224121 35.56612305 100.26224121 36.87695312 100.25878906 C39.21588547 100.19501572 39.21588547 100.19501572 41 98 C41.33333333 95.5 41.33333333 95.5 41 93 C38.06853667 90.06853667 35.51559254 90.70838557 31.50585938 90.67773438 C30.53455078 90.68095703 29.56324219 90.68417969 28.5625 90.6875 C27.59505859 90.67138672 26.62761719 90.65527344 25.63085938 90.63867188 C24.70208984 90.63802734 23.77332031 90.63738281 22.81640625 90.63671875 C21.53938843 90.63224731 21.53938843 90.63224731 20.23657227 90.62768555 C17.53040246 91.07817228 16.61536226 91.81462713 15 94 Z M25.5625 121.625 C22.63435864 126.07577487 22.00106549 129.72831202 23 135 C25.66979265 139.85416846 29.26844872 143.07923553 34.4375 145.0625 C40.69948723 146.68637127 45.57884467 146.02990448 51.25 142.9375 C55.38438718 140.08591675 57.85892911 136.93579501 59 132 C59.06475633 127.75486278 58.21469473 124.45329548 55.46875 121.16796875 C50.21503368 116.43271128 45.41734243 114.50675394 38.34375 114.68359375 C33.02609225 115.40147755 29.17201282 117.73783234 25.5625 121.625 Z M65 121 C64.96683047 124.72825553 66.40362246 126.70601781 68.80078125 129.3671875 C69.96074141 130.54698734 71.13173127 131.71602613 72.3125 132.875 C72.89451172 133.48085938 73.47652344 134.08671875 74.07617188 134.7109375 C74.64529297 135.278125 75.21441406 135.8453125 75.80078125 136.4296875 C76.31809814 136.94772949 76.83541504 137.46577148 77.3684082 137.99951172 C78.97908417 139.21451909 78.97908417 139.21451909 81.07495117 138.78564453 C83.19142044 138.06691051 83.19142044 138.06691051 85 136 C84.96897684 131.57144351 82.83563827 129.29515414 79.890625 126.29492188 C79.07851563 125.49924805 79.07851563 125.49924805 78.25 124.6875 C77.46109375 123.86282227 77.46109375 123.86282227 76.65625 123.02148438 C74.25859039 120.63272696 72.61846012 119.10744434 69.234375 118.51953125 C66.80847326 118.82976021 66.80847326 118.82976021 65 121 Z M8.875 143 C8.25625 143.66 7.6375 144.32 7 145 C8.5232546 151.24534388 11.71017495 155.82336717 17.06640625 159.3671875 C19.04634462 160.42461315 20.84339711 161.37463114 23 162 C23.99 161.67 24.98 161.34 26 161 C26.33 159.02 26.66 157.04 27 155 C26.278125 154.443125 25.55625 153.88625 24.8125 153.3125 C21.06254906 150.22920701 17.79507729 147.02224223 14.8125 143.1875 C14.214375 142.465625 13.61625 141.74375 13 141 C10.75637427 140.7715451 10.75637427 140.7715451 8.875 143 Z " fill="#5C8BEA" transform="translate(261,264)"/>
<path d="M0 0 C42.65038258 -1.43362631 86.31234263 13.47650197 121 38 C122.0621875 38.74894531 123.124375 39.49789062 124.21875 40.26953125 C148.05290334 57.67473533 166.67032573 78.5054886 183 103 C182.91162109 104.99902344 182.91162109 104.99902344 182 107 C180.00634766 108.55566406 180.00634766 108.55566406 177.4140625 110.015625 C176.48335937 110.54414063 175.55265625 111.07265625 174.59375 111.6171875 C173.6140625 112.15601563 172.634375 112.69484375 171.625 113.25 C170.65304687 113.80429688 169.68109375 114.35859375 168.6796875 114.9296875 C161.42129772 119 161.42129772 119 158 119 C156.23828125 116.7265625 156.23828125 116.7265625 154.3125 113.625 C148.09895382 103.96452309 140.84056529 95.37741929 133 87 C132.12859375 86.06285156 131.2571875 85.12570313 130.359375 84.16015625 C95.82987176 47.8620687 48.7263627 32.23707502 0 28 C0 18.76 0 9.52 0 0 Z " fill="#DF18FB" transform="translate(260,37)"/>
<path d="M0 0 C1.76171875 2.2734375 1.76171875 2.2734375 3.6875 5.375 C9.90104618 15.03547691 17.15943471 23.62258071 25 32 C25.87140625 32.93714844 26.7428125 33.87429688 27.640625 34.83984375 C61.99300831 70.95173937 109.38921192 87.03912097 158 91 C158 100.24 158 109.48 158 119 C115.84146297 120.41709368 71.02742099 105.94663998 37 81 C36.04738281 80.31808594 35.09476563 79.63617188 34.11328125 78.93359375 C10.14421632 61.41894369 -8.56542976 40.65185537 -25 16 C-24.91162109 14.00097656 -24.91162109 14.00097656 -24 12 C-22.00634766 10.44433594 -22.00634766 10.44433594 -19.4140625 8.984375 C-18.48335938 8.45585937 -17.55265625 7.92734375 -16.59375 7.3828125 C-15.6140625 6.84398437 -14.634375 6.30515625 -13.625 5.75 C-12.65304688 5.19570313 -11.68109375 4.64140625 -10.6796875 4.0703125 C-3.42129772 0 -3.42129772 0 0 0 Z " fill="#3BA7E6" transform="translate(94,356)"/>
<path d="M0 0 C2.619375 0.020625 5.23875 0.04125 7.9375 0.0625 C7.9375 9.3025 7.9375 18.5425 7.9375 28.0625 C3.93625 28.454375 -0.065 28.84625 -4.1875 29.25 C-42.81066823 33.39712501 -80.69840806 46.95045733 -110.0625 73.0625 C-110.87460938 73.76632813 -111.68671875 74.47015625 -112.5234375 75.1953125 C-115.07769431 77.4433808 -117.57711209 79.73854967 -120.0625 82.0625 C-120.99835938 82.93261719 -121.93421875 83.80273438 -122.8984375 84.69921875 C-133.53868363 94.83102719 -142.48019559 106.49189274 -150.0625 119.0625 C-155.71169388 118.16274429 -159.91825255 115.58602195 -164.8125 112.75 C-166.12541016 112.02006836 -166.12541016 112.02006836 -167.46484375 111.27539062 C-168.29628906 110.79650391 -169.12773437 110.31761719 -169.984375 109.82421875 C-170.74331055 109.39069092 -171.50224609 108.95716309 -172.28417969 108.51049805 C-174.0625 107.0625 -174.0625 107.0625 -174.94189453 105.10888672 C-175.09327299 102.54035594 -174.54320594 101.64601526 -173.0703125 99.55859375 C-172.61720703 98.90600586 -172.16410156 98.25341797 -171.69726562 97.58105469 C-171.19904297 96.89430664 -170.70082031 96.20755859 -170.1875 95.5 C-169.68154297 94.78618164 -169.17558594 94.07236328 -168.65429688 93.33691406 C-161.19313261 82.91474688 -152.8413755 73.37778965 -144.0625 64.0625 C-143.37285156 63.3303125 -142.68320313 62.598125 -141.97265625 61.84375 C-136.72266009 56.43271101 -130.9697218 51.7354928 -125.0625 47.0625 C-123.54462891 45.83660156 -123.54462891 45.83660156 -121.99609375 44.5859375 C-114.1118601 38.29149357 -105.85015805 33.00352598 -97.0625 28.0625 C-96.40266113 27.68738281 -95.74282227 27.31226562 -95.06298828 26.92578125 C-66.72464164 10.93129906 -32.82119635 -0.37091661 0 0 Z " fill="#DF18FB" transform="translate(244.0625,36.9375)"/>
<path d="M0 0 C3.88529692 0.58720619 6.69534474 1.74882055 10.08203125 3.72265625 C11.01337891 4.26083984 11.94472656 4.79902344 12.90429688 5.35351562 C13.86400391 5.91748047 14.82371094 6.48144531 15.8125 7.0625 C16.79154297 7.63033203 17.77058594 8.19816406 18.77929688 8.78320312 C21.18993348 10.18254827 23.5965851 11.58829929 26 13 C23.30922903 18.73140577 20.29164183 23.67517697 16.4375 28.6875 C15.64533081 29.72668579 15.64533081 29.72668579 14.8371582 30.78686523 C2.21765917 47.21502825 -11.55882289 62.38551979 -28.28369141 74.73242188 C-29.98567589 75.98942094 -31.67044998 77.2672632 -33.35546875 78.546875 C-42.39030013 85.3047094 -52.00331667 90.7956767 -62 96 C-62.66805664 96.35304199 -63.33611328 96.70608398 -64.02441406 97.06982422 C-85.25970317 108.1655018 -108.42294776 114.35675173 -132 118 C-132.72396973 118.1127124 -133.44793945 118.2254248 -134.19384766 118.34155273 C-139.1499143 119.04057913 -144.01003199 119.1182621 -149 119.0625 C-151.64 119.041875 -154.28 119.02125 -157 119 C-157 109.76 -157 100.52 -157 91 C-153.16375 90.608125 -149.3275 90.21625 -145.375 89.8125 C-106.9354527 85.51913249 -69.23718867 71.99919384 -40 46 C-39.18789063 45.29617188 -38.37578125 44.59234375 -37.5390625 43.8671875 C-34.98480569 41.6191192 -32.48538791 39.32395033 -30 37 C-28.59621094 35.69482422 -28.59621094 35.69482422 -27.1640625 34.36328125 C-16.52381637 24.23147281 -7.58230441 12.57060726 0 0 Z " fill="#3BA7E6" transform="translate(418,356)"/>
<path d="M0 0 C10.32566731 20.8106717 18.17125724 41.22557425 23 64 C23.18079102 64.84739746 23.36158203 65.69479492 23.54785156 66.56787109 C28.69507029 92.17605176 28.42070456 122.47447204 23 148 C22.80132324 148.95148926 22.60264648 149.90297852 22.39794922 150.88330078 C17.74368987 172.49510133 9.75853736 192.23444401 0 212 C-5.22430014 210.00657775 -9.91242081 207.34392671 -14.75 204.5625 C-15.62527344 204.07201172 -16.50054687 203.58152344 -17.40234375 203.07617188 C-18.23378906 202.59857422 -19.06523437 202.12097656 -19.921875 201.62890625 C-20.68081055 201.19650635 -21.43974609 200.76410645 -22.22167969 200.31860352 C-24 199 -24 199 -25 196 C-23.93212706 193.53263545 -22.7958347 191.19550653 -21.5625 188.8125 C-13.38069563 172.18343716 -8.01774609 154.26270863 -5 136 C-4.88430664 135.32549805 -4.76861328 134.65099609 -4.64941406 133.95605469 C1.58542929 96.15847319 -5.20079397 55.29717889 -22.59887695 21.28955078 C-23.46790442 19.55917315 -24.24257389 17.78205532 -25 16 C-23.73964123 12.21892369 -22.54514856 11.84442367 -19.16015625 9.86328125 C-18.17982422 9.28642578 -17.19949219 8.70957031 -16.18945312 8.11523438 C-15.15755859 7.52033203 -14.12566406 6.92542969 -13.0625 6.3125 C-12.03447266 5.70599609 -11.00644531 5.09949219 -9.94726562 4.47460938 C-2.28154 0 -2.28154 0 0 0 Z " fill="#8D5FF0" transform="translate(449,150)"/>
<path d="M0 0 C5.22430014 1.99342225 9.91242081 4.65607329 14.75 7.4375 C16.06291016 8.17323242 16.06291016 8.17323242 17.40234375 8.92382812 C18.23378906 9.40142578 19.06523438 9.87902344 19.921875 10.37109375 C20.68081055 10.80349365 21.43974609 11.23589355 22.22167969 11.68139648 C24 13 24 13 25 16 C23.93212984 18.46735812 22.79536757 20.80426981 21.5625 23.1875 C-0.20047979 67.59189434 -3.02283866 120.05023274 12.4465332 166.87402344 C15.29040215 175.08732861 18.63912143 182.9704072 22.59887695 190.71044922 C23.46790442 192.44082685 24.24257389 194.21794468 25 196 C23.73964123 199.78107631 22.54514856 200.15557633 19.16015625 202.13671875 C18.17982422 202.71357422 17.19949219 203.29042969 16.18945312 203.88476562 C15.15755859 204.47966797 14.12566406 205.07457031 13.0625 205.6875 C11.52045898 206.59725586 11.52045898 206.59725586 9.94726562 207.52539062 C2.28154 212 2.28154 212 0 212 C-10.32566731 191.1893283 -18.17125724 170.77442575 -23 148 C-23.18079102 147.15260254 -23.36158203 146.30520508 -23.54785156 145.43212891 C-33.47965964 96.01990283 -22.67499552 44.21564109 0 0 Z " fill="#8D5FF0" transform="translate(63,150)"/>
<path d="M0 0 C4.89593678 0.48156755 6.589084 1.691096 9.8125 5.375 C10.74566369 8.24585064 10.8125 10.28235723 10.8125 13.375 C8.8125 15.375 8.8125 15.375 5.5 15.75 C1.22209838 15.31495916 -0.22537763 14.42175444 -3.1875 11.375 C-5.18249741 8.65454899 -5.21040159 7.60859624 -4.875 4.1875 C-3.96542732 0.46652086 -3.96542732 0.46652086 0 0 Z " fill="#6B7BEC" transform="translate(290.1875,316.625)"/>
<path d="M0 0 C1.22589844 0.01353516 1.22589844 0.01353516 2.4765625 0.02734375 C3.41628906 0.04474609 3.41628906 0.04474609 4.375 0.0625 C6.67267442 5.2625 6.67267442 5.2625 5.375 8.75 C2.88064426 11.63409882 0.98389975 12.81326547 -2.625 14.0625 C-9.04605263 13.64144737 -9.04605263 13.64144737 -10.625 12.0625 C-11.06284542 8.20946032 -10.93085252 6.52127878 -8.75 3.25 C-5.73553841 0.14687777 -4.1943454 -0.05991922 0 0 Z " fill="#CE26F9" transform="translate(304.625,114.9375)"/>
<path d="M0 0 C2.375 1.1875 2.375 1.1875 4.25 3.8125 C5.58833522 7.82750565 5.4318901 10.11092391 4.375 14.1875 C2.8125 16.625 2.8125 16.625 1.375 18.1875 C-5.14964229 17.70419316 -5.14964229 17.70419316 -7.0625 15.625 C-7.88295639 12.06968896 -8.31966376 8.77423331 -7.625 5.1875 C-5.29013259 1.91868563 -4.08598777 0.29185627 0 0 Z " fill="#598DEA" transform="translate(350.625,353.8125)"/>
<path d="M0 0 C3.43095045 0.50932543 5.3514971 1.22214721 7.6875 3.8125 C9.61278042 7.04200264 10.33442648 8.41402094 9.625 12.0625 C7.625 14.0625 7.625 14.0625 3.875 14.5 C0.67523142 14.41257463 -1.24855914 13.86821575 -3.8125 11.9375 C-6.62410795 8.78301303 -7.46640924 7.26732522 -7.375 3.0625 C-5.18160802 0.07530902 -3.62731934 -0.35282799 0 0 Z " fill="#8169EF" transform="translate(115.375,275.9375)"/>
<path d="M0 0 C1.76171875 1.34765625 1.76171875 1.34765625 3 3 C3.125 5.9375 3.125 5.9375 2 9 C-1.86594973 12.07698039 -4.36575578 13.3714798 -9.3125 12.875 C-13 12 -13 12 -15 10 C-15.5 7.6875 -15.5 7.6875 -15 5 C-10.74626618 0.09184559 -6.4660463 -1.47795344 0 0 Z " fill="#8D5FF0" transform="translate(340,252)"/>
<path d="M0 0 C0.66 0.66 1.32 1.32 2 2 C1.92903335 5.90316601 1.86497221 8.16205817 -1 10.9375 C-5.07412547 12.38041944 -8.72730367 12.72988479 -13 12 C-15.1875 10.375 -15.1875 10.375 -16 8 C-15.5625 4.9375 -15.5625 4.9375 -14 2 C-9.14049345 -1.58677865 -5.62715317 -1.21921652 0 0 Z " fill="#8F5EF1" transform="translate(185,248)"/>
<path d="M0 0 C1.58453094 3.16906187 0.84149954 5.56033503 -0.0625 8.875 C-2.46049172 10.99630037 -4.29861915 10.89646538 -7.5 11.1875 C-11.30283183 10.85391826 -13.13199792 10.28835465 -16.0625 7.875 C-17.24900825 5.42288296 -17.20341958 4.35412656 -16.4375 1.75 C-12.57211959 -3.52097328 -5.29128961 -2.88615797 0 0 Z " fill="#CF24F9" transform="translate(218.0625,113.125)"/>
<path d="M0 0 C2 2 2 2 2.375 5.75 C2.23858697 10.15533845 1.09093989 12.75055037 -2 16 C-5.75 16.875 -5.75 16.875 -9 17 C-11.09387887 14.15232474 -12.01213303 12.5823856 -11.9375 9 C-10.86717935 5.57497392 -9.45027305 3.59877445 -7 1 C-4.48718205 -0.25640898 -2.78302919 -0.20872719 0 0 Z " fill="#9C52F2" transform="translate(118,218)"/>
<path d="M0 0 C1.423125 0.2475 1.423125 0.2475 2.875 0.5 C5.5601465 4.52771975 5.55574427 7.76799715 4.875 12.5 C3.12646522 15.4974882 2.00830785 17.01920273 -1.1875 18.375 C-3.125 18.5 -3.125 18.5 -6.125 17.5 C-8.3109682 14.76753975 -8.11281996 13.11632876 -8 9.5625 C-7.16168025 4.40731535 -5.48653476 0.87784556 0 0 Z " fill="#AD44F5" transform="translate(298.125,180.5)"/>
<path d="M0 0 C2.5625 0.5625 2.5625 0.5625 4.875 2.5625 C7.01726124 6.37096443 7.45993193 9.28244002 6.5625 13.5625 C4.5625 16.5625 4.5625 16.5625 2.5625 18.5625 C-0.25 18.5 -0.25 18.5 -3.4375 17.5625 C-5.61632775 13.97797693 -6.4772935 11.57723425 -6.3125 7.375 C-5.08455834 3.42804468 -4.2259736 0.97522468 0 0 Z " fill="#C132F7" transform="translate(162.4375,139.4375)"/>
<path d="M0 0 C4.57577498 0 6.49397926 0.54781126 9.9375 3.625 C12.32124667 7.52567637 12.67779562 9.50960404 12 14 C10.875 16 10.875 16 9 17 C4.79517478 17.09140924 3.27948697 16.24910795 0.125 13.4375 C-2.72238345 9.65624802 -2.5372566 6.60505658 -2 2 C-1.34 1.34 -0.68 0.68 0 0 Z " fill="#C131F7" transform="translate(348,139)"/>
<path d="M0 0 C2.06500254 1.63623113 2.89002533 2.59257706 3.58203125 5.15625 C3.65808594 5.9296875 3.73414063 6.703125 3.8125 7.5 C3.90144531 8.2734375 3.99039063 9.046875 4.08203125 9.84375 C4 12 4 12 2 15 C-1.92111462 15.69708704 -3.51586419 15.33351578 -6.8125 13.0625 C-9.61170809 9.14360868 -10.13119863 5.77000734 -10 1 C-7.70095503 -3.59808995 -3.82759159 -1.59482983 0 0 Z " fill="#588EEA" transform="translate(162,358)"/>
<path d="M0 0 C2 3 2 3 1.875 6.375 C0.90435631 10.39623815 0.07755231 12.24640056 -3 15 C-6.625 15.9375 -6.625 15.9375 -10 16 C-12 14 -12 14 -12.3125 10.1875 C-12.20863423 6.37216413 -11.47814152 4.00917185 -9 1 C-5.84300795 -1.31512751 -3.66605365 -1.25417625 0 0 Z " fill="#7F6CEE" transform="translate(404,278)"/>
<path d="M0 0 C3.86345353 0.05539001 6.19882712 0.7372694 9.25 3.25 C11.06395844 5.72357969 11.29234133 6.805416 11 9.875 C10.25 12.25 10.25 12.25 8.25 14.25 C4.30227778 14.78832576 2.51336034 14.39687404 -1 12.4375 C-3.75 10.25 -3.75 10.25 -5.75 7.25 C-5.05872483 0.33724832 -5.05872483 0.33724832 0 0 Z " fill="#9A54F2" transform="translate(392.75,221.75)"/>
<path d="M0 0 C4.35085725 0.36257144 5.74689899 1.2235961 8.75 4.3125 C10.74499741 7.03295101 10.77290159 8.07890376 10.4375 11.5 C9.75 14.3125 9.75 14.3125 8.75 15.3125 C4.72679738 15.69934641 2.44420025 15.72902015 -1.0625 13.625 C-3.3884284 11.1661614 -4.45042216 9.59076915 -5.25 6.3125 C-4.58274414 0.44064848 -4.58274414 0.44064848 0 0 Z " fill="#AE43F5" transform="translate(216.25,179.6875)"/>
<path d="M0 0 C2.0625 1.875 2.0625 1.875 2.5625 4.875 C2.0625 7.875 2.0625 7.875 1.0625 9.6875 C-2.08322775 11.55527585 -5.33766877 12.0153443 -8.9375 11.875 C-11.36813337 10.73725672 -13.05563896 9.75686104 -14.9375 7.875 C-14.75 4.4375 -14.75 4.4375 -13.9375 0.875 C-10.09546234 -2.52372562 -4.48443082 -1.71744159 0 0 Z " fill="#4A9BE8" transform="translate(307.9375,389.125)"/>
<path d="M0 0 C1 1 1 1 1.3125 3.75 C0.93145411 7.71287721 -0.26289752 9.1823945 -3 12 C-5.24512262 13.12256131 -6.51456649 13.13413762 -9 13.125 C-10.051875 13.12886719 -10.051875 13.12886719 -11.125 13.1328125 C-13 13 -13 13 -15 12 C-15.43494462 7.56356484 -15.54001196 5.67136622 -12.6875 2.125 C-8.20979048 -1.41551451 -5.4481045 -1.00890824 0 0 Z " fill="#4C98E8" transform="translate(217,384)"/>
<path d="M0 0 C2.9375 0.625 2.9375 0.625 4.9375 2.5625 C6.34637987 6.87719461 5.61328803 10.44336071 3.9375 14.625 C2.578125 16.41015625 2.578125 16.41015625 0.9375 17.625 C-2.6875 17.4375 -2.6875 17.4375 -6.0625 16.625 C-7.79692696 13.15614609 -7.5267711 9.41763719 -7.0625 5.625 C-5.08355595 1.89545159 -4.149432 0.84682286 0 0 Z " fill="#6D7BEC" transform="translate(216.0625,313.375)"/>
</svg>
